<svg id="elephant" xmlns="http://www.w3.org/2000/svg" viewBox="0 0 600 600">
  <path id="elephant" d="M -328.25 111.15 C -302.9 79.8 -297.35 69.15 -293 57.85 C -288.7 46.7 -283.7 35.85 -279.2 24.8 C -273.05 7 -270.95 5 -267.4 3.3 C -267.4 5.2 -267.4 6.7 -267.4 8.25 C -267.65 31.4 -268 54.6 -268.1 77.8 C -268.15 89 -264.95 99.7 -262.55 110.55 C -258 127.8 -259.1 134.1 -260.95 140.5 C -263.75 149.9 -266.15 159.45 -268.7 168.9 C -276.85 202.65 -276.1 217.5 -274.05 232.3 C -272.95 240.1 -271.85 247.8 -274.25 255.6 C -275.2 258.65 -275.85 262 -275.75 265.15 C -275.5 270.9 -271.65 274.65 -265.9 275.25 C -260.4 275.85 -254.9 276.35 -249.4 276.6 C -242.2 276.95 -234.95 277.35 -227.75 277.05 C -219.1 276.7 -210.5 275.55 -201.85 274.85 C -199.45 274.65 -199.05 273.35 -199.3 271.45 C -199.7 268.7 -200.15 266 -200.65 263.1 C -200.25 262.9 -199.8 262.65 -199.35 262.5 C -195.45 261.05 -193.8 257.35 -196.05 253.8 C -198.25 250.4 -200.95 247.3 -203.7 244.25 C -223.15 218.1 -222.6 213.4 -221.35 209 C -210.7 181.2 -206.4 174.6 -201.4 168.8 C -173.75 141.5 -168.95 133.35 -166.75 123.7 C -165.85 119.9 -164.7 116.15 -163.45 112.45 C -163.25 111.8 -161.85 111.05 -161.05 111.15 C -152 111.7 -142.95 112.7 -133.85 113.05 C -68.15 110.2 -60.8 106.85 -53.75 103.15 C -48.7 100.45 -43.55 98.05 -38.3 95.45 C -34.9 98.9 -33.05 103.2 -31.95 107.9 C -26.05 159.7 -25.25 167.5 -25.25 175.35 C -26.6 206 -25.75 210.7 -26.1 215.3 C -34.85 252.35 -34.2 258.1 -29.7 262.3 C -28.85 263.15 -27.35 263.85 -26.15 263.8 C 20.05 261.8 28.25 261.75 36.4 261.7 C 37.5 261.7 38.85 262.1 39.6 262.85 C 42.5 265.65 46.15 265.65 49.7 265.7 C 59.8 265.85 69.9 265.75 80.05 265.75 C 95.45 265.4 98.15 264.45 100.85 263.7 C 111.75 260.9 111.85 259.5 110.6 252.9 C 105.45 245 104.15 243.15 102.7 241.4 C 95.9 235.1 90.4 230.65 87.65 224.05 C 85 206.5 83.2 194.2 82.5 181.85 C 83.1 145.7 82.9 137.85 83.15 129.95 C 86.4 87.3 86.2 72.6 85.45 57.9 C 84.8 45.5 83.1 33.1 82 20.7 C 81.9 19.8 82.85 18.3 83.7 17.8 C 123.3 -5.2 134.15 -11.25 146.05 -17.95 C 170.8 9.5 172.95 10.7 175 9.35 C 175.55 -0.4 174.75 -1.4 173.9 -2.3 C 167.15 -9.1 164.05 -17.9 160.45 -26.45 C 160.15 -27.25 159.8 -28 159.2 -29.35 C 185.35 -40.15 189.5 -43.7 193.1 -47.95 C 195.35 -50.55 198.3 -52 201.2 -50.05 C 208.35 -45.3 216.6 -45.15 224.55 -43.7 C 224.95 -43.6 225.4 -43.6 225.75 -43.45 C 227.4 -42.8 229.25 -42.1 230.25 -44.1 C 230.8 -45.2 230.5 -46.7 230.7 -48.9 C 241.45 -50.9 244.6 -51.2 247.75 -51.1 C 268.05 -45.35 282 -44 295.9 -46.25 C 305.3 -47.75 314.95 -49.55 323 -55.5 C 328.4 -59.4 333.3 -63.65 334.55 -70.65 C 334.8 -72.05 334.6 -73.6 334.05 -75.6 C 320.15 -62.75 303.4 -62.85 285.7 -63.15 C 290.3 -67.7 297.55 -69.1 297 -77.55 C 290.95 -75.35 285.3 -73.15 279.6 -71.2 C 273.4 -69.1 267.1 -67.35 260.25 -70.4 C 283.7 -76.1 292.85 -83.05 300.05 -93.55 C 312.9 -123.25 312.8 -131.6 312.45 -139.95 C 312 -150.15 307.75 -159.35 304.45 -168.8 C 301.05 -178.55 299.2 -188.6 300.45 -198.8 C 301.75 -209.45 305.3 -219.55 311 -228.8 C 324.05 -248.7 331.3 -253.8 340.2 -256.55 C 350 -259.7 349.7 -261.8 349.1 -262.85 C 347.3 -279.9 344.55 -282.35 341.25 -279.95 C 335.9 -276.05 329.55 -275.5 323.7 -273.25 C 312.1 -268.8 301.75 -262.1 292.95 -253.45 C 283.75 -244.45 275.7 -234.6 270.85 -222.25 C 266.8 -211.95 261.85 -201.95 260 -190.95 C 257.9 -178.6 258.15 -166.1 260.65 -153.65 C 261.85 -147.7 261.9 -141.45 262.15 -135.3 C 257 -126.55 253.65 -122.75 251 -119.6 C 230.95 -126.25 226.4 -128.35 222.25 -131.65 C 205.65 -142.85 199.75 -147.3 193.65 -151.45 C 172.95 -163.5 165.45 -167.4 157.8 -171 C 125.2 -172.4 115.3 -169.4 106.2 -164 C 77.75 -146.7 72.9 -145.95 67.8 -146.05 C 54.8 -145.5 51.5 -148.4 47.75 -149.9 C 13.3 -157.25 5.9 -158.45 -1.55 -159.25 C -43.9 -152.5 -50.3 -149.05 -57 -146.2 C -70.9 -147.85 -78.55 -149.85 -86.25 -151.6 C -119.3 -159.25 -130.95 -155.65 -142.55 -152.25 C -173.05 -141.05 -178.65 -138.15 -183.95 -134.9 C -217.6 -111.3 -225.4 -103.55 -232.9 -95.65 C -255.95 -67.35 -260.3 -61.35 -263.95 -55 C -282.35 -8 -283.55 -2.3 -285.15 3.3 C -295.55 35.7 -298.05 42.45 -300.75 49.1 C -312 73.45 -315.35 81.25 -319.55 88.6 C -345.75 116 -349.05 120.6 -350 127.6 C -346.75 126.1 -344.05 125.1 -341.55 123.7 Z M 20.3 216.65 C 25.25 195.3 26.65 184.8 28.05 174.35 C 31.6 148.05 31.8 148.05 32 148.1 C 38.75 176.4 39.3 186.7 37.95 197.15 C 37.2 203.25 36.2 209.6 39.05 215.35 C 42.4 222.2 41.65 229.1 40.25 236.05 C 35.2 247.35 34.1 246.1 33.1 244.8 C 19.85 227.55 17.2 222.9 20.3 216.65 Z"/>
</svg>