<svg id="mouse" xmlns="http://www.w3.org/2000/svg" viewBox="0 0 600 600">
  <path id="mouse" d="M 388.1 -156.2 C 347.25 -147.65 311.3 -118.45 262.4 -54.05 C 229.9 -11.15 201.25 18.9 187.6 17.85 C 177 -39.85 131.2 -57.6 102.6 -74.5 C 64.7 -97.5 22.75 -108.65 -22.1 -108.9 C -56.25 -109.05 -65.05 -105.85 -89.6 -94.1 C -176.6 -58.05 -162.25 -85.2 -158.55 -98.95 C -152.55 -121.15 -160.6 -135.85 -178.7 -135.85 C -190.5 -135.85 -206.35 -120.15 -212.7 -102.25 C -220.6 -87.65 -219.85 -83.1 -233.75 -108.05 C -248.7 -117.25 -260.2 -103.2 -260.2 -84.6 C -260.2 -73.25 -262.1 -70.65 -273.4 -66.85 C -287.85 -61.95 -337.5 -16.75 -337.5 -8.45 C -330.65 11.75 -303.95 29.9 -257.4 33.75 C -233.3 35.75 -231.45 36.75 -200.15 54.25 C -154.6 92.95 -205.45 105.1 -223.55 118.65 C -233.6 121.85 -234.25 128.6 -224.6 129.45 C -210.6 130.75 -202.4 128.7 -179.6 118.25 C -137.15 98.8 -111.85 90.7 -93.05 90.65 C -56.05 90.55 -32.55 109.95 -46.1 129.35 C -74.15 155.9 -20.45 143.6 -19.25 137.9 C -18.5 134.2 -10.05 131.95 6.3 131 C 30.3 129.65 65.85 117.5 71.2 108.8 C 74.65 103.25 116.85 103 120.25 108.5 C 94.65 121.35 89.9 130.05 105.8 132.3 C 126.3 135.15 146.15 125.5 154.9 108.3 C 173.05 92.2 187.3 67.2 187.6 42.1 C 218.4 37.75 248 6.5 286.4 -46.95 C 338.4 -119.3 369.85 -141 423.35 -141.35 C 489.6 -146.1 520.35 -96.25 526.75 -84.85 C 529.85 -78.4 559.65 -23.55 562 -23.55 C 516.95 -143.8 473.7 -168.1 388.1 -156.2 Z M 13.4 96.65 C 70 102.05 -12.9 126.8 -17.4 124 C -19.35 122.8 -20.15 106.45 -20.15 99.6 C -20.15 89.7 -18.7 87.6 -13.05 89.2 Z"/>
</svg>