<svg id="rabbit" xmlns="http://www.w3.org/2000/svg" viewBox="0 0 600 600">
  <path id="rabbit" d="M 238.3 136.35 C 217.45 111.9 217.3 75.95 195.8 76.8 C 181.35 77.35 170.8 47.65 165.45 28.1 C 165.7 23.8 165.6 19.8 164.95 15.9 C 178.85 17.85 192.85 10.35 198.6 -3.15 C 205.45 -19.35 202.9 -67.3 181.7 -44.9 S 146.85 -44.15 140 -27.95 C 138.75 -25 137.95 -21.95 137.7 -18.9 C 124.15 -26.4 105.95 -31.9 83.4 -35.75 C 11.95 -48.05 -59.55 -95.15 -83.15 -111.8 C -81.9 -116.4 -81.4 -121.15 -81.9 -126 C -61.6 -123.85 -28.45 -126.55 1.3 -135.8 C 46.7 -149.95 33.4 -159.35 77 -159.35 C 125.4 -164.15 34.8 -192.45 -10.2 -183.55 C 24.45 -206.5 52.75 -183.55 81.85 -212.6 C 20.15 -243.15 -16.6 -228.4 -55.7 -201.25 C -74.4 -188.25 -90.3 -174.8 -101.05 -163.25 C -116.75 -176.05 -139.8 -178.85 -165.2 -178.7 C -171.65 -175.45 -178.1 -172.25 -184.55 -164.15 C -199.1 -154.5 -237.85 -130.25 -223.3 -110.9 C -217.8 -94.6 -188.35 -67.2 -154.05 -66.5 C -151.3 -60.4 -147.45 -52.65 -142.25 -43.8 C -161.35 -44.25 -225.45 -45.6 -236.75 -44.4 C -250 -43 -239.2 -23.55 -223.75 -18.45 C -208.3 -13.3 -185.8 -19.9 -165.8 -8.7 C -141 5.15 -111.2 12.4 -94.55 15.55 C -74.6 34.15 -49.15 52.05 -17.05 65.45 C 26.95 83.85 52.75 78 86.7 73.15 C 101.5 99.3 125.35 114.4 174.55 108.65 C 174.55 108.65 187.4 109.9 216.75 168.85 C 227.85 191.1 250 165.3 238.3 136.35 H 238.25 Z"/>
</svg>