<svg id="tortise" xmlns="http://www.w3.org/2000/svg" viewBox="0 0 600 600">
  <path id="tortise" d="M -0.707 -0.0095 C -0.7074 -0.024 -0.7006 -0.0361 -0.6817 -0.0354 C -0.6761 -0.0356 -0.6706 -0.0384 -0.6648 -0.0354 C -0.6262 -0.0288 -0.6179 -0.0425 -0.6025 -0.0466 C -0.5902 -0.0499 -0.5766 -0.0485 -0.5637 -0.0491 C -0.5462 -0.0502 -0.5357 -0.0459 -0.5267 -0.0377 C -0.5207 -0.0322 -0.5138 -0.0303 -0.506 -0.0303 C -0.4343 -0.0241 -0.4462 -0.0564 -0.4422 -0.0694 C -0.4243 -0.1619 -0.3928 -0.1858 -0.3727 -0.2082 C -0.2914 -0.2871 -0.301 -0.22 -0.221 -0.304 C -0.1822 -0.3622 -0.161 -0.364 -0.1357 -0.3671 C -0.0305 -0.4116 -0.0152 -0.4057 -0.0051 -0.4049 C 0.0557 -0.4005 0.0849 -0.3793 0.1136 -0.3698 C 0.1424 -0.3603 0.1698 -0.3588 0.2006 -0.3667 C 0.2282 -0.3707 0.2547 -0.3782 0.2832 -0.3727 C 0.312 -0.3644 0.3331 -0.3513 0.3521 -0.3323 C 0.4223 -0.2489 0.4759 -0.2871 0.5218 -0.2294 C 0.5747 -0.1765 0.5699 -0.0354 0.587 -0.0285 C 0.6327 -0.0138 0.6101 -0.0103 0.6337 -0.0135 C 0.6554 -0.0172 0.6602 0.0009 0.6534 0.0181 C 0.601 0.1019 0.6009 0.1021 0.6008 0.1022 C 0.5507 0.1489 0.5559 0.1341 0.5639 0.1669 C 0.5965 0.2095 0.5718 0.2493 0.5675 0.2633 C 0.5551 0.2845 0.5525 0.3004 0.5599 0.3124 C 0.5729 0.3358 0.5873 0.3406 0.5867 0.3554 C 0.5864 0.3632 0.5821 0.368 0.5774 0.3728 C 0.5481 0.3787 0.5388 0.405 0.5261 0.4048 C 0.51 0.4046 0.4962 0.4102 0.4841 0.4198 C 0.4751 0.4269 0.4663 0.4269 0.4574 0.4212 C 0.4483 0.4153 0.4396 0.4153 0.4296 0.4188 C 0.4014 0.4304 0.396 0.4218 0.3936 0.4188 C 0.3861 0.4085 0.3917 0.4044 0.3924 0.4025 C 0.4058 0.3899 0.4001 0.3735 0.3988 0.3682 C 0.3702 0.3247 0.377 0.305 0.3792 0.2852 C 0.3837 0.273 0.3677 0.2814 0.3617 0.2825 C 0.2856 0.3099 0.2655 0.3074 0.2498 0.3081 C 0.1733 0.3234 0.1502 0.3166 0.1319 0.317 C 0.1181 0.3172 0.1185 0.3172 0.1127 0.3294 C 0.0841 0.3694 0.0945 0.3919 0.1008 0.4004 C 0.1436 0.4419 0.1359 0.4616 0.1309 0.4806 C 0.1197 0.5041 0.1048 0.5195 0.0869 0.528 C 0.0693 0.5363 0.0625 0.539 0.0505 0.55 C 0.0402 0.5533 0.0398 0.5533 0.0394 0.5533 C 0.0286 0.5494 0.0193 0.5575 0.0145 0.5595 C 0.0072 0.5624 -0.0038 0.5648 -0.0121 0.557 C -0.0206 0.5511 -0.0179 0.5456 -0.0372 0.5502 C -0.0563 0.56 -0.0759 0.5469 -0.0862 0.5362 C -0.101 0.5221 -0.0806 0.5055 -0.072 0.4942 C -0.0657 0.4759 -0.0679 0.47 -0.0739 0.4634 C -0.0912 0.4446 -0.1026 0.4254 -0.1179 0.4013 C -0.1398 0.3674 -0.1278 0.3603 -0.1286 0.3462 C -0.1262 0.3177 -0.1322 0.3067 -0.1382 0.3051 C -0.2005 0.2805 -0.3168 0.2871 -0.3181 0.2904 C -0.323 0.3857 -0.3302 0.3898 -0.3402 0.3933 C -0.3609 0.3946 -0.3794 0.4631 -0.3952 0.4621 C -0.4184 0.4552 -0.4289 0.4668 -0.4362 0.468 C -0.4458 0.4696 -0.4548 0.467 -0.4676 0.4597 C -0.4955 0.4683 -0.5082 0.4544 -0.5125 0.4514 C -0.5237 0.4425 -0.5399 0.4506 -0.5484 0.4506 C -0.5656 0.4427 -0.569 0.4336 -0.5648 0.4253 C -0.5626 0.3998 -0.5192 0.4046 -0.5176 0.3613 C -0.5142 0.2675 -0.5079 0.2424 -0.4927 0.2199 C -0.4724 0.1908 -0.4701 0.187 -0.4678 0.1835 C -0.4813 0.1657 -0.4932 0.1688 -0.5036 0.1677 C -0.5361 0.1684 -0.5499 0.141 -0.5566 0.1368 C -0.5691 0.1291 -0.5836 0.1268 -0.5979 0.1246 C -0.6237 0.1206 -0.6492 0.1158 -0.6713 0.1002 C -0.6833 0.0917 -0.6895 0.0792 -0.6934 0.0661 L -0.7071 0.0013 Z"/>
</svg>